<svg width="21" height="21" viewBox="0 0 21 21" fill="none" xmlns="http://www.w3.org/2000/svg">
<path fill-rule="evenodd" clip-rule="evenodd" d="M10.5 0.083252C16.2532 0.083252 20.9167 4.74679 20.9167 10.4999C20.9167 16.253 16.2532 20.9166 10.5 20.9166C4.74692 20.9166 0.083374 16.253 0.083374 10.4999C0.083374 4.74679 4.74692 0.083252 10.5 0.083252ZM10.5 2.16675C5.89795 2.16675 2.1667 5.898 2.1667 10.5001C2.1667 15.1022 5.89795 18.8334 10.5 18.8334C15.1021 18.8334 18.8334 15.1022 18.8334 10.5001C18.8334 5.898 15.1021 2.16675 10.5 2.16675ZM10.5 3.20825C11.5604 3.20825 12.5677 3.43429 13.4771 3.84159L11.849 5.46867C11.4188 5.35409 10.9667 5.29159 10.5 5.29159C7.62399 5.29159 5.2917 7.62388 5.2917 10.4999C5.2917 11.9374 5.87503 13.2395 6.8167 14.1833L5.34378 15.6562L5.18128 15.4885C3.95836 14.1843 3.20836 12.4291 3.20836 10.4999C3.20836 6.47284 6.47295 3.20825 10.5 3.20825ZM17.1588 7.52417C17.5651 8.4325 17.7922 9.44084 17.7922 10.5002C17.7922 12.5138 16.9755 14.3367 15.6567 15.6565L14.1838 14.1835C15.1255 13.2398 15.7088 11.9377 15.7088 10.5002C15.7088 10.0335 15.6474 9.58146 15.5317 9.15125L17.1588 7.52417ZM14.9188 4.60742L16.3927 6.08034L12.5136 9.96159C12.5594 10.1335 12.5834 10.3137 12.5834 10.5001C12.5834 11.6512 11.6511 12.5835 10.5 12.5835C9.34899 12.5835 8.4167 11.6512 8.4167 10.5001C8.4167 9.34909 9.34899 8.4168 10.5 8.4168C10.6865 8.4168 10.8667 8.44075 11.0386 8.48659L14.9198 4.60742L14.9188 4.60742Z" fill="white"/>
</svg>
