<svg width="11" height="11" viewBox="0 0 11 11" fill="none" xmlns="http://www.w3.org/2000/svg">
<path fill-rule="evenodd" clip-rule="evenodd" d="M2.34078 8.74994C2.57012 8.09996 3.18444 7.66528 3.8737 7.66528C4.56295 7.66528 5.17727 8.09997 5.40661 8.74994L10.9154 8.74994V9.83328H5.40661C5.17727 10.4833 4.56295 10.9179 3.8737 10.9179C3.18444 10.9179 2.57012 10.4833 2.34078 9.83327L0.0820312 9.83328V8.74994H2.34078ZM5.59078 4.95844C5.82012 4.30846 6.43444 3.87378 7.1237 3.87378C7.81295 3.87378 8.42727 4.30846 8.65661 4.95844H10.9154V6.04177H8.65661C8.42727 6.69175 7.81295 7.12643 7.1237 7.12643C6.43444 7.12643 5.82012 6.69175 5.59078 6.04177H0.0820312V4.95844H5.59078ZM2.34078 1.16669C2.57012 0.516713 3.18444 0.0820312 3.8737 0.0820312C4.56295 0.0820314 5.17727 0.516713 5.40661 1.16669L10.9154 1.16669V2.25002H5.40661C5.17727 2.9 4.56295 3.33468 3.8737 3.33468C3.18444 3.33468 2.57012 2.9 2.34078 2.25002L0.0820312 2.25002V1.16669H2.34078Z" fill="white"/>
</svg>
