<svg width="25" height="25" viewBox="0 0 25 25" fill="none" xmlns="http://www.w3.org/2000/svg">
<path fill-rule="evenodd" clip-rule="evenodd" d="M13.6666 17.7324L9.2926 15.347C8.12405 16.5962 6.31069 17.0043 4.7196 16.3762C3.12852 15.748 2.08301 14.2112 2.08301 12.5006C2.083 10.79 3.1285 9.25323 4.71958 8.62507C6.31066 7.9969 8.12403 8.40501 9.29258 9.65425L13.6676 7.26885C13.1537 5.23455 14.2327 3.13549 16.186 2.36938C18.1393 1.60326 20.3576 2.40913 21.3637 4.25037C22.3699 6.0916 21.8499 8.39375 20.1501 9.62385C18.4504 10.854 16.101 10.6282 14.6666 9.09699L10.2916 11.4824C10.4595 12.1505 10.4595 12.8497 10.2916 13.5178L14.6655 15.9032C16.1 14.372 18.4493 14.1462 20.1491 15.3763C21.8489 16.6064 22.3688 18.9086 21.3627 20.7498C20.3566 22.5911 18.1383 23.3969 16.185 22.6308C14.2316 21.8647 13.1527 19.7657 13.6665 17.7314L13.6666 17.7324ZM6.24987 14.5834C7.40046 14.5834 8.3332 13.6507 8.33321 12.5001C8.33321 11.3495 7.40047 10.4168 6.24988 10.4167C5.09929 10.4167 4.16655 11.3495 4.16654 12.5001C4.16654 13.6507 5.09927 14.5834 6.24986 14.5834H6.24987ZM17.7082 8.33341C18.8588 8.33341 19.7915 7.40068 19.7915 6.25009C19.7915 5.0995 18.8588 4.16675 17.7082 4.16675C16.5576 4.16675 15.6249 5.09948 15.6249 6.25007C15.6249 7.40066 16.5576 8.33341 17.7082 8.33341H17.7082ZM17.7082 20.8334C18.8588 20.8334 19.7915 19.9007 19.7915 18.7501C19.7915 17.5995 18.8588 16.6668 17.7082 16.6667C16.5576 16.6667 15.6249 17.5995 15.6249 18.7501C15.6249 19.9007 16.5576 20.8334 17.7082 20.8334H17.7082Z" fill="#878A99"/>
</svg>
