<svg width="25" height="25" viewBox="0 0 25 25" fill="none" xmlns="http://www.w3.org/2000/svg">
<path fill-rule="evenodd" clip-rule="evenodd" d="M19.7913 22.9173H5.20801C3.48212 22.9173 2.08301 21.5182 2.08301 19.7923V3.12565C2.08301 2.55035 2.54938 2.08398 3.12467 2.08398H17.708C18.2833 2.08398 18.7497 2.55035 18.7497 3.12565V15.6257H22.9163V19.7923C22.9163 21.5182 21.5172 22.9173 19.7913 22.9173ZM18.7496 17.709V19.7923C18.7496 20.3676 19.216 20.834 19.7913 20.834C20.3666 20.834 20.833 20.3676 20.833 19.7923V17.709H18.7496ZM16.6663 20.8341V4.16748H4.1663V19.7925C4.1663 20.3678 4.63267 20.8341 5.20797 20.8341H16.6663ZM6.24963 7.29248H14.583V9.37581H6.24963V7.29248ZM6.24963 11.459H14.583V13.5423H6.24963V11.459ZM6.24963 15.6257H11.458V17.7091H6.24963V15.6257Z" fill="#878A99"/>
</svg>
