<svg width="25" height="25" viewBox="0 0 25 25" fill="none" xmlns="http://www.w3.org/2000/svg">
<path fill-rule="evenodd" clip-rule="evenodd" d="M7.34096 14.709L5.13262 16.9194L8.07846 19.8652L19.8628 8.0798L16.917 5.13501L14.7055 7.34334L16.1795 8.81626L14.7055 10.2913L13.2326 8.8173L11.7597 10.2913L13.2326 11.7642L11.7597 13.2371L10.2868 11.7642L8.81283 13.2371L10.2868 14.71L8.81283 16.184L7.34096 14.7079V14.709ZM17.6515 2.92543L22.0702 7.34418C22.4769 7.75095 22.4769 8.41033 22.0702 8.8171L8.81189 22.0754C8.40512 22.4821 7.74574 22.4821 7.33897 22.0754L2.92022 17.6567C2.51357 17.2499 2.51357 16.5905 2.92022 16.1838L16.1786 2.92543C16.5853 2.51878 17.2447 2.51878 17.6515 2.92543V2.92543ZM14.7029 19.1282L16.1769 17.6553L18.5123 19.9918H19.9852V18.5188L17.6498 16.1824L19.1227 14.7095L21.8696 17.4553V21.8751H17.4509L14.704 19.1282L14.7029 19.1282ZM5.86762 10.2898L2.92074 7.34392C2.72514 7.14853 2.61523 6.88341 2.61523 6.60694C2.61523 6.33047 2.72514 6.06534 2.92074 5.86996L5.86762 2.92413C6.27439 2.51748 6.93376 2.51748 7.34053 2.92413L10.2884 5.86996L8.81345 7.34392L6.60407 5.1335L5.13116 6.60746L7.34053 8.81579L5.86762 10.2897V10.2898Z" fill="#878A99"/>
</svg>
