<svg width="25" height="25" viewBox="0 0 25 25" fill="none" xmlns="http://www.w3.org/2000/svg">
<path fill-rule="evenodd" clip-rule="evenodd" d="M12.5 21.7704L17.6562 16.6141C20.5036 13.7665 20.5035 9.14981 17.6559 6.30235C14.8084 3.45489 10.1917 3.45488 7.34412 6.30232C4.49656 9.14977 4.49638 13.7665 7.34372 16.6141L12.5 21.7704ZM12.5 24.7163L5.87083 18.0871C2.20971 14.4259 2.20972 8.49003 5.87088 4.82888C9.53203 1.16773 15.4679 1.16772 19.1291 4.82885C22.7903 8.48998 22.7903 14.4259 19.1292 18.0871L12.5 24.7163ZM12.5 13.5414C13.6506 13.5414 14.5833 12.6087 14.5833 11.4581C14.5833 10.3075 13.6506 9.37476 12.5 9.37476C11.3494 9.37475 10.4167 10.3075 10.4167 11.4581C10.4167 12.6087 11.3494 13.5414 12.5 13.5414H12.5ZM12.5 15.6248C11.0114 15.6248 9.63586 14.8307 8.89156 13.5415C8.14726 12.2523 8.14726 10.664 8.89156 9.37484C9.63586 8.08567 11.0114 7.2915 12.5 7.2915C13.9886 7.2915 15.3641 8.08567 16.1084 9.37484C16.8527 10.664 16.8527 12.2523 16.1084 13.5415C15.3641 14.8307 13.9886 15.6248 12.5 15.6248Z" fill="#878A99"/>
</svg>
