<svg width="13" height="13" viewBox="0 0 13 13" fill="none" xmlns="http://www.w3.org/2000/svg">
<path fill-rule="evenodd" clip-rule="evenodd" d="M9.51841 8.69333L12.0168 11.1912L11.1914 12.0166L8.69358 9.51816C7.76417 10.2632 6.60816 10.6684 5.41699 10.6667C2.51899 10.6667 0.166992 8.31475 0.166992 5.41675C0.166992 2.51875 2.51899 0.166748 5.41699 0.166748C8.31499 0.166748 10.667 2.51875 10.667 5.41675C10.6686 6.60813 10.2634 7.76413 9.51827 8.6935L9.51841 8.69333ZM8.34857 8.26058C9.08888 7.49926 9.50233 6.47875 9.50065 5.41683C9.50065 3.1605 7.67307 1.3335 5.41732 1.3335C3.16098 1.3335 1.33398 3.1605 1.33398 5.41683C1.33398 7.67258 3.16098 9.50016 5.41732 9.50016C6.47924 9.50183 7.49975 9.0884 8.26107 8.34808L8.34857 8.26058Z" fill="#878A99"/>
</svg>
