<svg width="10" height="12" viewBox="0 0 10 12" fill="none" xmlns="http://www.w3.org/2000/svg">
<path fill-rule="evenodd" clip-rule="evenodd" d="M2.29167 4.33366V3.25033C2.29167 2.28273 2.80787 1.38864 3.64583 0.90484C4.48379 0.421043 5.51621 0.421043 6.35417 0.90484C7.19213 1.38864 7.70833 2.28273 7.70833 3.25032V4.33366H9.33333C9.63249 4.33366 9.875 4.57617 9.875 4.87533V11.3753C9.875 11.6745 9.63249 11.917 9.33333 11.917H0.666667C0.367512 11.917 0.125 11.6745 0.125 11.3753V4.87533C0.125 4.57617 0.367512 4.33366 0.666667 4.33366H2.29167ZM2.29036 5.41699H1.20703V10.8337H8.79036V5.41699H7.70703V6.50033H6.6237V5.41699H3.3737V6.50033H2.29036V5.41699ZM3.375 4.33382H6.625V3.25049C6.625 2.35303 5.89747 1.62549 5 1.62549C4.10254 1.62549 3.375 2.35302 3.375 3.25048V4.33382Z" fill="white"/>
</svg>
